<?xml version="1.0" standalone="no"?>
<!DOCTYPE svg PUBLIC "-//W3C//DTD SVG 20010904//EN"
 "http://www.w3.org/TR/2001/REC-SVG-20010904/DTD/svg10.dtd">
<svg version="1.0" xmlns="http://www.w3.org/2000/svg"
 width="500.000000pt" height="500.000000pt" viewBox="0 0 500.000000 500.000000"
 preserveAspectRatio="xMidYMid meet">

<g transform="translate(0.000000,500.000000) scale(0.100000,-0.100000)"
fill="#000000" stroke="none">
<path d="M2625 3680 c-3 -5 -20 -47 -36 -92 -17 -46 -44 -119 -61 -163 -17
-44 -45 -120 -63 -170 -31 -85 -57 -155 -127 -340 -16 -44 -45 -120 -63 -170
-18 -49 -47 -128 -65 -175 -17 -47 -44 -119 -60 -160 -15 -41 -33 -87 -39
-102 l-11 -28 139 0 138 0 17 48 c22 58 66 175 100 265 15 38 45 119 67 180
40 110 72 198 129 347 27 72 72 192 130 350 16 41 40 105 54 143 14 37 26 69
26 72 0 10 -269 5 -275 -5z"/>
<path d="M1525 3277 l-480 -242 -3 -67 c-3 -76 -9 -71 127 -128 57 -24 161
-69 516 -226 44 -20 89 -40 100 -44 11 -5 65 -30 119 -55 54 -25 101 -45 102
-45 2 0 4 54 4 120 0 106 -2 121 -17 127 -24 8 -179 71 -223 91 -41 18 -190
78 -240 97 -19 8 -65 27 -103 42 l-67 29 52 26 c29 14 78 37 108 51 52 23 82
37 270 124 41 19 108 51 148 71 l72 36 0 118 c0 65 -1 118 -2 117 -2 0 -219
-109 -483 -242z"/>
<path d="M2990 3402 l0 -118 73 -36 c39 -20 106 -52 147 -71 188 -87 218 -101
270 -124 30 -14 79 -37 108 -51 l52 -26 -67 -29 c-38 -15 -84 -34 -103 -42
-50 -19 -199 -79 -240 -97 -44 -20 -199 -83 -222 -91 -16 -6 -18 -21 -18 -127
0 -66 2 -120 4 -120 1 0 48 20 102 45 54 25 108 50 119 55 11 4 56 24 100 44
355 157 459 202 516 226 136 57 130 52 127 128 l-3 67 -482 243 -483 242 0
-118z"/>
</g>
</svg>
